<mxfile host="app.diagrams.net" agent="Mozilla/5.0 (Windows NT 10.0; Win64; x64) AppleWebKit/537.36 (KHTML, like Gecko) Chrome/132.0.0.0 Safari/537.36 Edg/132.0.0.0" version="25.0.3">
  <diagram name="Page-1" id="BvtVnJpaxebbxGNwzpUb">
    <mxGraphModel dx="1674" dy="752" grid="1" gridSize="10" guides="1" tooltips="1" connect="1" arrows="1" fold="1" page="1" pageScale="1" pageWidth="1920" pageHeight="1080" math="0" shadow="0">
      <root>
        <mxCell id="0" />
        <mxCell id="1" parent="0" />
        <mxCell id="_zi3qPCux8MWK28GRQo1-22" style="edgeStyle=none;rounded=0;orthogonalLoop=1;jettySize=auto;html=1;" edge="1" parent="1" source="_zi3qPCux8MWK28GRQo1-5" target="_zi3qPCux8MWK28GRQo1-14">
          <mxGeometry relative="1" as="geometry" />
        </mxCell>
        <mxCell id="_zi3qPCux8MWK28GRQo1-45" style="edgeStyle=none;rounded=0;orthogonalLoop=1;jettySize=auto;html=1;" edge="1" parent="1" source="_zi3qPCux8MWK28GRQo1-5" target="_zi3qPCux8MWK28GRQo1-44">
          <mxGeometry relative="1" as="geometry" />
        </mxCell>
        <mxCell id="_zi3qPCux8MWK28GRQo1-5" value="equipo" style="rounded=0;whiteSpace=wrap;html=1;" vertex="1" parent="1">
          <mxGeometry x="370" y="215" width="90" height="50" as="geometry" />
        </mxCell>
        <mxCell id="_zi3qPCux8MWK28GRQo1-38" style="edgeStyle=none;rounded=0;orthogonalLoop=1;jettySize=auto;html=1;" edge="1" parent="1" source="_zi3qPCux8MWK28GRQo1-6" target="_zi3qPCux8MWK28GRQo1-34">
          <mxGeometry relative="1" as="geometry" />
        </mxCell>
        <mxCell id="_zi3qPCux8MWK28GRQo1-40" style="edgeStyle=none;rounded=0;orthogonalLoop=1;jettySize=auto;html=1;" edge="1" parent="1" source="_zi3qPCux8MWK28GRQo1-6" target="_zi3qPCux8MWK28GRQo1-37">
          <mxGeometry relative="1" as="geometry" />
        </mxCell>
        <mxCell id="_zi3qPCux8MWK28GRQo1-43" style="edgeStyle=none;rounded=0;orthogonalLoop=1;jettySize=auto;html=1;" edge="1" parent="1" source="_zi3qPCux8MWK28GRQo1-6" target="_zi3qPCux8MWK28GRQo1-42">
          <mxGeometry relative="1" as="geometry" />
        </mxCell>
        <mxCell id="_zi3qPCux8MWK28GRQo1-6" value="torneo" style="rounded=0;whiteSpace=wrap;html=1;" vertex="1" parent="1">
          <mxGeometry x="1010" y="210" width="90" height="50" as="geometry" />
        </mxCell>
        <mxCell id="_zi3qPCux8MWK28GRQo1-24" style="edgeStyle=none;rounded=0;orthogonalLoop=1;jettySize=auto;html=1;" edge="1" parent="1" source="_zi3qPCux8MWK28GRQo1-7" target="_zi3qPCux8MWK28GRQo1-9">
          <mxGeometry relative="1" as="geometry" />
        </mxCell>
        <mxCell id="_zi3qPCux8MWK28GRQo1-26" style="edgeStyle=none;rounded=0;orthogonalLoop=1;jettySize=auto;html=1;" edge="1" parent="1" source="_zi3qPCux8MWK28GRQo1-7" target="_zi3qPCux8MWK28GRQo1-13">
          <mxGeometry relative="1" as="geometry" />
        </mxCell>
        <mxCell id="_zi3qPCux8MWK28GRQo1-7" value="admin" style="rounded=0;whiteSpace=wrap;html=1;" vertex="1" parent="1">
          <mxGeometry x="680" y="515" width="90" height="50" as="geometry" />
        </mxCell>
        <mxCell id="_zi3qPCux8MWK28GRQo1-18" style="rounded=0;orthogonalLoop=1;jettySize=auto;html=1;" edge="1" parent="1" source="_zi3qPCux8MWK28GRQo1-8" target="_zi3qPCux8MWK28GRQo1-12">
          <mxGeometry relative="1" as="geometry" />
        </mxCell>
        <mxCell id="_zi3qPCux8MWK28GRQo1-20" style="edgeStyle=none;rounded=0;orthogonalLoop=1;jettySize=auto;html=1;" edge="1" parent="1" source="_zi3qPCux8MWK28GRQo1-8" target="_zi3qPCux8MWK28GRQo1-11">
          <mxGeometry relative="1" as="geometry" />
        </mxCell>
        <mxCell id="_zi3qPCux8MWK28GRQo1-47" style="edgeStyle=none;rounded=0;orthogonalLoop=1;jettySize=auto;html=1;" edge="1" parent="1" source="_zi3qPCux8MWK28GRQo1-8" target="_zi3qPCux8MWK28GRQo1-46">
          <mxGeometry relative="1" as="geometry" />
        </mxCell>
        <mxCell id="_zi3qPCux8MWK28GRQo1-50" style="edgeStyle=none;rounded=0;orthogonalLoop=1;jettySize=auto;html=1;" edge="1" parent="1" source="_zi3qPCux8MWK28GRQo1-8" target="_zi3qPCux8MWK28GRQo1-48">
          <mxGeometry relative="1" as="geometry" />
        </mxCell>
        <mxCell id="_zi3qPCux8MWK28GRQo1-52" style="edgeStyle=none;rounded=0;orthogonalLoop=1;jettySize=auto;html=1;" edge="1" parent="1" source="_zi3qPCux8MWK28GRQo1-8" target="_zi3qPCux8MWK28GRQo1-51">
          <mxGeometry relative="1" as="geometry" />
        </mxCell>
        <mxCell id="_zi3qPCux8MWK28GRQo1-8" value="jugador" style="rounded=0;whiteSpace=wrap;html=1;" vertex="1" parent="1">
          <mxGeometry x="680" y="215" width="90" height="50" as="geometry" />
        </mxCell>
        <mxCell id="_zi3qPCux8MWK28GRQo1-25" style="edgeStyle=none;rounded=0;orthogonalLoop=1;jettySize=auto;html=1;" edge="1" parent="1" source="_zi3qPCux8MWK28GRQo1-9" target="_zi3qPCux8MWK28GRQo1-6">
          <mxGeometry relative="1" as="geometry" />
        </mxCell>
        <mxCell id="_zi3qPCux8MWK28GRQo1-9" value="crea" style="rhombus;whiteSpace=wrap;html=1;" vertex="1" parent="1">
          <mxGeometry x="850" y="360" width="80" height="80" as="geometry" />
        </mxCell>
        <mxCell id="_zi3qPCux8MWK28GRQo1-21" style="edgeStyle=none;rounded=0;orthogonalLoop=1;jettySize=auto;html=1;" edge="1" parent="1" source="_zi3qPCux8MWK28GRQo1-11" target="_zi3qPCux8MWK28GRQo1-6">
          <mxGeometry relative="1" as="geometry" />
        </mxCell>
        <mxCell id="_zi3qPCux8MWK28GRQo1-11" value="participa en" style="rhombus;whiteSpace=wrap;html=1;" vertex="1" parent="1">
          <mxGeometry x="850" y="200" width="80" height="80" as="geometry" />
        </mxCell>
        <mxCell id="_zi3qPCux8MWK28GRQo1-19" style="edgeStyle=none;rounded=0;orthogonalLoop=1;jettySize=auto;html=1;" edge="1" parent="1" source="_zi3qPCux8MWK28GRQo1-12" target="_zi3qPCux8MWK28GRQo1-5">
          <mxGeometry relative="1" as="geometry" />
        </mxCell>
        <mxCell id="_zi3qPCux8MWK28GRQo1-12" value="participa en" style="rhombus;whiteSpace=wrap;html=1;" vertex="1" parent="1">
          <mxGeometry x="520" y="200" width="80" height="80" as="geometry" />
        </mxCell>
        <mxCell id="_zi3qPCux8MWK28GRQo1-27" style="edgeStyle=none;rounded=0;orthogonalLoop=1;jettySize=auto;html=1;" edge="1" parent="1" source="_zi3qPCux8MWK28GRQo1-13" target="_zi3qPCux8MWK28GRQo1-5">
          <mxGeometry relative="1" as="geometry" />
        </mxCell>
        <mxCell id="_zi3qPCux8MWK28GRQo1-13" value="crea" style="rhombus;whiteSpace=wrap;html=1;" vertex="1" parent="1">
          <mxGeometry x="520" y="350" width="80" height="80" as="geometry" />
        </mxCell>
        <mxCell id="_zi3qPCux8MWK28GRQo1-23" style="edgeStyle=none;rounded=0;orthogonalLoop=1;jettySize=auto;html=1;" edge="1" parent="1" source="_zi3qPCux8MWK28GRQo1-14" target="_zi3qPCux8MWK28GRQo1-6">
          <mxGeometry relative="1" as="geometry" />
        </mxCell>
        <mxCell id="_zi3qPCux8MWK28GRQo1-14" value="participa en" style="rhombus;whiteSpace=wrap;html=1;" vertex="1" parent="1">
          <mxGeometry x="685" y="10" width="80" height="80" as="geometry" />
        </mxCell>
        <mxCell id="_zi3qPCux8MWK28GRQo1-33" style="edgeStyle=none;rounded=0;orthogonalLoop=1;jettySize=auto;html=1;" edge="1" parent="1" source="_zi3qPCux8MWK28GRQo1-31" target="_zi3qPCux8MWK28GRQo1-32">
          <mxGeometry relative="1" as="geometry" />
        </mxCell>
        <mxCell id="_zi3qPCux8MWK28GRQo1-36" style="edgeStyle=none;rounded=0;orthogonalLoop=1;jettySize=auto;html=1;" edge="1" parent="1" source="_zi3qPCux8MWK28GRQo1-31" target="_zi3qPCux8MWK28GRQo1-35">
          <mxGeometry relative="1" as="geometry" />
        </mxCell>
        <mxCell id="_zi3qPCux8MWK28GRQo1-31" value="categorÃ­a" style="rounded=0;whiteSpace=wrap;html=1;" vertex="1" parent="1">
          <mxGeometry x="1270" y="210" width="90" height="50" as="geometry" />
        </mxCell>
        <mxCell id="_zi3qPCux8MWK28GRQo1-32" value="&lt;u&gt;nombre&lt;/u&gt;" style="ellipse;whiteSpace=wrap;html=1;" vertex="1" parent="1">
          <mxGeometry x="1340" y="110" width="90" height="40" as="geometry" />
        </mxCell>
        <mxCell id="_zi3qPCux8MWK28GRQo1-39" style="edgeStyle=none;rounded=0;orthogonalLoop=1;jettySize=auto;html=1;" edge="1" parent="1" source="_zi3qPCux8MWK28GRQo1-34" target="_zi3qPCux8MWK28GRQo1-31">
          <mxGeometry relative="1" as="geometry" />
        </mxCell>
        <mxCell id="_zi3qPCux8MWK28GRQo1-34" value="contiene" style="rhombus;whiteSpace=wrap;html=1;" vertex="1" parent="1">
          <mxGeometry x="1140" y="100" width="80" height="80" as="geometry" />
        </mxCell>
        <mxCell id="_zi3qPCux8MWK28GRQo1-35" value="valor" style="ellipse;whiteSpace=wrap;html=1;" vertex="1" parent="1">
          <mxGeometry x="1400" y="155" width="90" height="40" as="geometry" />
        </mxCell>
        <mxCell id="_zi3qPCux8MWK28GRQo1-41" style="edgeStyle=none;rounded=0;orthogonalLoop=1;jettySize=auto;html=1;" edge="1" parent="1" source="_zi3qPCux8MWK28GRQo1-37" target="_zi3qPCux8MWK28GRQo1-31">
          <mxGeometry relative="1" as="geometry" />
        </mxCell>
        <mxCell id="_zi3qPCux8MWK28GRQo1-37" value="ordenado por" style="rhombus;whiteSpace=wrap;html=1;" vertex="1" parent="1">
          <mxGeometry x="1140" y="300" width="80" height="80" as="geometry" />
        </mxCell>
        <mxCell id="_zi3qPCux8MWK28GRQo1-42" value="&lt;u&gt;nombre&lt;/u&gt;" style="ellipse;whiteSpace=wrap;html=1;" vertex="1" parent="1">
          <mxGeometry x="1010" y="330" width="90" height="40" as="geometry" />
        </mxCell>
        <mxCell id="_zi3qPCux8MWK28GRQo1-44" value="&lt;u&gt;nombre&lt;/u&gt;" style="ellipse;whiteSpace=wrap;html=1;" vertex="1" parent="1">
          <mxGeometry x="290" y="120" width="90" height="40" as="geometry" />
        </mxCell>
        <mxCell id="_zi3qPCux8MWK28GRQo1-46" value="nombre" style="ellipse;whiteSpace=wrap;html=1;" vertex="1" parent="1">
          <mxGeometry x="790" y="160" width="90" height="40" as="geometry" />
        </mxCell>
        <mxCell id="_zi3qPCux8MWK28GRQo1-48" value="&lt;u&gt;correo&lt;/u&gt;" style="ellipse;whiteSpace=wrap;html=1;" vertex="1" parent="1">
          <mxGeometry x="700" y="140" width="90" height="40" as="geometry" />
        </mxCell>
        <mxCell id="_zi3qPCux8MWK28GRQo1-51" value="etc" style="ellipse;whiteSpace=wrap;html=1;" vertex="1" parent="1">
          <mxGeometry x="740" y="300" width="90" height="40" as="geometry" />
        </mxCell>
      </root>
    </mxGraphModel>
  </diagram>
</mxfile>
